<mxfile host="65bd71144e">
    <diagram id="FUg3EEcsEjv8cldkQ-AA" name="Página-1">
        <mxGraphModel dx="1491" dy="553" grid="1" gridSize="10" guides="1" tooltips="1" connect="1" arrows="1" fold="1" page="1" pageScale="1" pageWidth="827" pageHeight="1169" math="0" shadow="0">
            <root>
                <mxCell id="0"/>
                <mxCell id="1" parent="0"/>
                <mxCell id="29" value="" style="edgeStyle=none;html=1;" edge="1" parent="1" source="27" target="28">
                    <mxGeometry relative="1" as="geometry"/>
                </mxCell>
                <mxCell id="27" value="INICIO" style="ellipse;whiteSpace=wrap;html=1;strokeWidth=2;fillWeight=2;hachureGap=8;fillColor=#990000;fillStyle=dots;sketch=1;" vertex="1" parent="1">
                    <mxGeometry x="230" y="170" width="120" height="60" as="geometry"/>
                </mxCell>
                <mxCell id="31" value="" style="edgeStyle=none;html=1;fontColor=#FFFFFF;" edge="1" parent="1" source="28" target="30">
                    <mxGeometry relative="1" as="geometry"/>
                </mxCell>
                <mxCell id="28" value="c=&amp;nbsp;&lt;span style=&quot;font-family: &amp;#34;consolas&amp;#34; , &amp;#34;courier new&amp;#34; , monospace ; font-size: 14px&quot;&gt;determine cual opción quiere&lt;/span&gt;" style="shape=parallelogram;perimeter=parallelogramPerimeter;whiteSpace=wrap;html=1;fixedSize=1;fillColor=#d80073;strokeWidth=2;fillWeight=2;hachureGap=8;fillStyle=dots;sketch=1;fontColor=#ffffff;strokeColor=#A50040;" vertex="1" parent="1">
                    <mxGeometry x="230" y="280" width="120" height="60" as="geometry"/>
                </mxCell>
                <mxCell id="34" value="" style="edgeStyle=none;html=1;fontColor=#FFFFFF;" edge="1" parent="1" source="30" target="33">
                    <mxGeometry relative="1" as="geometry">
                        <Array as="points">
                            <mxPoint x="500" y="415"/>
                        </Array>
                    </mxGeometry>
                </mxCell>
                <mxCell id="30" value="c == 1" style="rhombus;whiteSpace=wrap;html=1;fillColor=#0050ef;strokeColor=#001DBC;fontColor=#ffffff;strokeWidth=2;fillWeight=2;hachureGap=8;fillStyle=dots;sketch=1;" vertex="1" parent="1">
                    <mxGeometry x="190" y="390" width="190" height="50" as="geometry"/>
                </mxCell>
                <mxCell id="37" value="" style="edgeStyle=none;html=1;fontColor=#FFFFFF;" edge="1" parent="1" source="33" target="36">
                    <mxGeometry relative="1" as="geometry">
                        <Array as="points">
                            <mxPoint x="340" y="530"/>
                        </Array>
                    </mxGeometry>
                </mxCell>
                <mxCell id="39" value="" style="edgeStyle=none;html=1;fontColor=#FFFFFF;" edge="1" parent="1" source="33" target="38">
                    <mxGeometry relative="1" as="geometry">
                        <Array as="points">
                            <mxPoint x="640" y="530"/>
                        </Array>
                    </mxGeometry>
                </mxCell>
                <mxCell id="33" value="p= para el metodo de pago elija una opcion&lt;br&gt;p==1" style="rhombus;whiteSpace=wrap;html=1;fillColor=#60a917;strokeColor=#2D7600;fontColor=#ffffff;strokeWidth=2;fillWeight=2;hachureGap=8;fillStyle=dots;sketch=1;" vertex="1" parent="1">
                    <mxGeometry x="430" y="475" width="140" height="110" as="geometry"/>
                </mxCell>
                <mxCell id="35" value="v" style="text;html=1;align=center;verticalAlign=middle;resizable=0;points=[];autosize=1;strokeColor=none;fillColor=none;fontColor=#FFFFFF;" vertex="1" parent="1">
                    <mxGeometry x="430" y="370" width="20" height="20" as="geometry"/>
                </mxCell>
                <mxCell id="36" value="d = digite el valor de compra&lt;br&gt;&lt;br&gt;d1 = d * 0.10&lt;br&gt;d2= d-d1" style="rounded=1;whiteSpace=wrap;html=1;fillColor=#60a917;strokeColor=#2D7600;fontColor=#ffffff;strokeWidth=2;fillWeight=2;hachureGap=8;fillStyle=dots;sketch=1;" vertex="1" parent="1">
                    <mxGeometry x="280" y="610" width="120" height="60" as="geometry"/>
                </mxCell>
                <mxCell id="38" value="d = digite el valor de compra&lt;br&gt;d1 = d*o.15&lt;br&gt;d2 = d + d1" style="whiteSpace=wrap;html=1;fillColor=#60a917;strokeColor=#2D7600;fontColor=#ffffff;strokeWidth=2;fillWeight=2;hachureGap=8;fillStyle=dots;sketch=1;" vertex="1" parent="1">
                    <mxGeometry x="580" y="610" width="120" height="60" as="geometry"/>
                </mxCell>
                <mxCell id="40" value="v" style="text;html=1;align=center;verticalAlign=middle;resizable=0;points=[];autosize=1;strokeColor=none;fillColor=none;fontColor=#FFFFFF;" vertex="1" parent="1">
                    <mxGeometry x="630" y="510" width="20" height="20" as="geometry"/>
                </mxCell>
                <mxCell id="41" value="f" style="text;html=1;align=center;verticalAlign=middle;resizable=0;points=[];autosize=1;strokeColor=none;fillColor=none;fontColor=#FFFFFF;" vertex="1" parent="1">
                    <mxGeometry x="350" y="510" width="20" height="20" as="geometry"/>
                </mxCell>
                <mxCell id="44" value="" style="endArrow=classic;html=1;fontColor=#FFFFFF;exitX=0.5;exitY=1;exitDx=0;exitDy=0;" edge="1" parent="1" source="36">
                    <mxGeometry width="50" height="50" relative="1" as="geometry">
                        <mxPoint x="540" y="810" as="sourcePoint"/>
                        <mxPoint x="340" y="890" as="targetPoint"/>
                    </mxGeometry>
                </mxCell>
                <mxCell id="45" value="" style="endArrow=none;html=1;fontColor=#FFFFFF;entryX=0.5;entryY=1;entryDx=0;entryDy=0;" edge="1" parent="1" target="38">
                    <mxGeometry width="50" height="50" relative="1" as="geometry">
                        <mxPoint x="340" y="820" as="sourcePoint"/>
                        <mxPoint x="590" y="760" as="targetPoint"/>
                        <Array as="points">
                            <mxPoint x="640" y="820"/>
                        </Array>
                    </mxGeometry>
                </mxCell>
                <mxCell id="48" value="" style="edgeStyle=none;html=1;fontColor=#FFFFFF;" edge="1" parent="1" source="46">
                    <mxGeometry relative="1" as="geometry">
                        <mxPoint x="330" y="1060" as="targetPoint"/>
                    </mxGeometry>
                </mxCell>
                <mxCell id="46" value="d2 (total a pagar)" style="shape=document;whiteSpace=wrap;html=1;boundedLbl=1;labelBackgroundColor=none;fontColor=#ffffff;fillColor=#d80073;strokeColor=#A50040;" vertex="1" parent="1">
                    <mxGeometry x="270" y="890" width="120" height="80" as="geometry"/>
                </mxCell>
                <mxCell id="49" value="fin" style="ellipse;whiteSpace=wrap;html=1;strokeWidth=2;fillWeight=2;hachureGap=8;fillColor=#1ba1e2;fillStyle=dots;sketch=1;labelBackgroundColor=none;fontColor=#ffffff;strokeColor=#006EAF;" vertex="1" parent="1">
                    <mxGeometry x="270" y="1050" width="120" height="60" as="geometry"/>
                </mxCell>
                <mxCell id="63" value="" style="edgeStyle=none;html=1;fontColor=#FFFFFF;exitX=0;exitY=0.5;exitDx=0;exitDy=0;" edge="1" parent="1" target="66" source="30">
                    <mxGeometry relative="1" as="geometry">
                        <mxPoint x="-80" y="440" as="sourcePoint"/>
                        <Array as="points">
                            <mxPoint x="10" y="420"/>
                        </Array>
                    </mxGeometry>
                </mxCell>
                <mxCell id="64" value="" style="edgeStyle=none;html=1;fontColor=#FFFFFF;" edge="1" parent="1" source="66" target="67">
                    <mxGeometry relative="1" as="geometry">
                        <Array as="points">
                            <mxPoint x="-120" y="555"/>
                        </Array>
                    </mxGeometry>
                </mxCell>
                <mxCell id="65" value="" style="edgeStyle=none;html=1;fontColor=#FFFFFF;" edge="1" parent="1" source="66">
                    <mxGeometry relative="1" as="geometry">
                        <mxPoint x="180" y="635" as="targetPoint"/>
                        <Array as="points">
                            <mxPoint x="180" y="555"/>
                        </Array>
                    </mxGeometry>
                </mxCell>
                <mxCell id="66" value="p= para el metodo de pago elija una opcion&lt;br&gt;p==2" style="rhombus;whiteSpace=wrap;html=1;fillColor=#647687;strokeColor=#314354;fontColor=#ffffff;strokeWidth=2;fillWeight=2;hachureGap=8;fillStyle=dots;sketch=1;" vertex="1" parent="1">
                    <mxGeometry x="-60" y="500" width="140" height="110" as="geometry"/>
                </mxCell>
                <mxCell id="67" value="d = digite el valor de compra&lt;br&gt;&lt;br&gt;d1 = d * 0.10&lt;br&gt;d2= d-d1" style="rounded=1;whiteSpace=wrap;html=1;fillColor=#60a917;strokeColor=#2D7600;fontColor=#ffffff;strokeWidth=2;fillWeight=2;hachureGap=8;fillStyle=dots;sketch=1;" vertex="1" parent="1">
                    <mxGeometry x="-180" y="635" width="120" height="60" as="geometry"/>
                </mxCell>
                <mxCell id="68" value="v" style="text;html=1;align=center;verticalAlign=middle;resizable=0;points=[];autosize=1;strokeColor=none;fillColor=none;fontColor=#FFFFFF;" vertex="1" parent="1">
                    <mxGeometry x="170" y="535" width="20" height="20" as="geometry"/>
                </mxCell>
                <mxCell id="69" value="f" style="text;html=1;align=center;verticalAlign=middle;resizable=0;points=[];autosize=1;strokeColor=none;fillColor=none;fontColor=#FFFFFF;" vertex="1" parent="1">
                    <mxGeometry x="-110" y="535" width="20" height="20" as="geometry"/>
                </mxCell>
                <mxCell id="72" value="" style="edgeStyle=none;html=1;fontColor=#FFFFFF;" edge="1" parent="1">
                    <mxGeometry relative="1" as="geometry">
                        <mxPoint x="-130" y="1084.9999999999998" as="targetPoint"/>
                        <mxPoint x="-130" y="995" as="sourcePoint"/>
                    </mxGeometry>
                </mxCell>
                <mxCell id="74" value="d = digite el valor de compra&lt;br&gt;&lt;br&gt;d1 = d * 0.10&lt;br&gt;d2= d+d1" style="rounded=1;whiteSpace=wrap;html=1;fillColor=#60a917;strokeColor=#2D7600;fontColor=#ffffff;strokeWidth=2;fillWeight=2;hachureGap=8;fillStyle=dots;sketch=1;" vertex="1" parent="1">
                    <mxGeometry x="120" y="630" width="120" height="60" as="geometry"/>
                </mxCell>
                <mxCell id="76" value="" style="endArrow=none;html=1;fontColor=#FFFFFF;exitX=0.5;exitY=1;exitDx=0;exitDy=0;" edge="1" parent="1" source="67">
                    <mxGeometry width="50" height="50" relative="1" as="geometry">
                        <mxPoint x="-20" y="710" as="sourcePoint"/>
                        <mxPoint x="340" y="860" as="targetPoint"/>
                        <Array as="points">
                            <mxPoint x="-120" y="860"/>
                        </Array>
                    </mxGeometry>
                </mxCell>
                <mxCell id="77" value="" style="endArrow=none;html=1;fontColor=#FFFFFF;entryX=0.5;entryY=1;entryDx=0;entryDy=0;" edge="1" parent="1" target="74">
                    <mxGeometry width="50" height="50" relative="1" as="geometry">
                        <mxPoint x="340" y="840" as="sourcePoint"/>
                        <mxPoint x="30" y="660" as="targetPoint"/>
                        <Array as="points">
                            <mxPoint x="180" y="840"/>
                        </Array>
                    </mxGeometry>
                </mxCell>
            </root>
        </mxGraphModel>
    </diagram>
</mxfile>